<svg xmlns="http://www.w3.org/2000/svg" version="1.1" xmlns:xlink="http://www.w3.org/1999/xlink" xmlns:svgjs="http://svgjs.dev/svgjs" width="750" height="515" viewBox="0 0 407.79649658203124 312" style="background: rgb(182, 197, 182);" class="svg-animations "><svg viewBox="0 0 129.99610900878906 135" width="100" height="100" style="fill: rgb(0, 113, 0);" x="273.81345520019534" y="106"><svg width="131" height="130" viewBox="0 0 131 130" xmlns="http://www.w3.org/2000/svg">
<path d="M50.3156 5.001C47.5586 5.001 45.3153 7.24321 45.3153 10.0013V37.9301L8.85271 1.46483C7.90687 0.520034 6.65236 0 5.31734 0C3.98231 0 2.72775 0.520007 1.78197 1.46483C0.837173 2.40753 0.317139 3.66517 0.317139 5.0002C0.317139 6.33522 0.837146 7.58979 1.78197 8.53557L38.2473 44.9982H10.3184C7.5614 44.9982 5.31814 47.2404 5.31814 49.9984C5.31814 52.7554 7.56035 54.9987 10.3184 54.9987H50.3167C51.6517 54.9987 52.9062 54.4787 53.852 53.5339C54.7968 52.5891 55.3169 51.3335 55.3169 49.9985V10.0002C55.3169 7.24217 53.0736 4.99998 50.3166 4.99998L50.3156 5.001Z"></path>
<path d="M80.3149 55.0008H120.313C123.07 55.0008 125.313 52.7586 125.313 50.0006C125.313 47.2457 123.071 45.0035 120.316 45.0003H92.3822L128.848 8.53771C129.792 7.59292 130.312 6.33737 130.312 5.00234C130.312 3.66732 129.792 2.41275 128.848 1.46697C127.902 0.522176 126.647 0.00214266 125.312 0.00214266C123.977 0.00214266 122.719 0.522149 121.777 1.46697L85.3141 37.9323V10.0034C85.3141 7.2464 83.0719 5.00314 80.3139 5.00314C77.5569 5.00314 75.3136 7.24536 75.3136 10.0034V50.0017C75.3136 51.3367 75.8336 52.5912 76.7785 53.537C77.7243 54.4818 78.9788 55.0019 80.3138 55.0019L80.3149 55.0008Z"></path>
<path d="M92.3843 85.0002H120.313C123.07 85.0002 125.313 82.758 125.313 80C125.313 77.243 123.071 74.9997 120.313 74.9997H80.3149C78.9799 74.9997 77.7222 75.5197 76.7796 76.4645C75.8348 77.4104 75.3148 78.6649 75.3148 79.9999V119.998C75.3148 122.755 77.557 124.998 80.315 124.998C83.072 124.998 85.3153 122.756 85.3153 119.998V92.0699L121.781 128.535C122.722 129.48 123.98 130 125.315 130C126.65 130 127.904 129.48 128.85 128.535C130.801 126.585 130.801 123.413 128.85 121.465L92.3843 85.0002Z"></path>
<path d="M50.3156 74.9986H10.3173C7.56033 74.9986 5.31707 77.2408 5.31707 79.9989C5.31707 82.7559 7.55928 84.9991 10.3173 84.9991H38.2462L1.7809 121.462C-0.169385 123.409 -0.169385 126.581 1.7809 128.532C2.72569 129.476 3.98124 129.997 5.31627 129.997C6.65129 129.997 7.90899 129.477 8.85164 128.532L45.3143 92.0664V119.995C45.3143 122.752 47.5565 124.996 50.3145 124.996C53.0715 124.996 55.3148 122.753 55.3148 119.995V79.997C55.3148 78.6619 54.7948 77.4043 53.8499 76.4616C52.9041 75.5168 51.6496 74.9968 50.3146 74.9968L50.3156 74.9986Z"></path>
</svg></svg><text fill="#007100" font-family="Lucida Console" font-size="32px" x="45.883691406249994" y="161.3398057224052"><tspan dy="0" x="45.883691406249994">Eventoneria</tspan></text><text fill="#d3ffd9" font-family="Monaco" font-size="16px" x="43.98304138183593" y="190.03883414277936"><tspan dy="0" x="43.98304138183593">Buscando união, com organização.</tspan></text></svg>